<?xml version="1.0" encoding="utf-8"?>
<!-- Generator: Adobe Illustrator 21.0.2, SVG Export Plug-In . SVG Version: 6.00 Build 0)  -->
<!DOCTYPE svg PUBLIC "-//W3C//DTD SVG 1.1//EN" "http://www.w3.org/Graphics/SVG/1.1/DTD/svg11.dtd">
<svg version="1.1" id="Layer_1" xmlns="http://www.w3.org/2000/svg" xmlns:xlink="http://www.w3.org/1999/xlink" x="0px" y="0px"
	 viewBox="0 0 32 32" style="enable-background:new 0 0 32 32;" xml:space="preserve" width="16" height="16">
<style type="text/css">
	.Blue{fill:#00539c;}
	.Gray{fill:#F6F6F6;}
</style>

<path class="Gray"
     d="m 20.7,10.1c0.3-2.5,0.1-1.8,0.3-2.1,1.1,0,1.6,0.2,2.4,0.4,0,0,3.6-3.7,4.7-4.9,0.6-2.0-0.1-2.5-1.0-3.1-6.0-0.5-9-0.7-11.9,2.4-1.2,1.4-1.8,3-2.6,5.7
     l-0.4,1.6-3.8,0.1-4.3,4.7c-0.8,0.8-0.5,2.9,1.6,3,0,0,2.2,0.1,5.5,0.1l-0.5,4.2c-0.7,1.8-1.6,1.6-2.8,1.49 0,0-3.1,2.9-4.2,4.0-0.3,1.4,0.3,2.1,1,2.8,0.8,0.9,
     2.1,1.3,3.3,1.32,4.2,0.1,5.9-0.2,8.2-2.3,1-0.9,2.2-2.3,2.7-3.4,0.4-1.1,0.7-3.4,0.9-5.3l0.19-2.92h3.8l4.2-4.6c1.4-1.5,0.5-3-1.1-3z"
/>
<path class="Blue" d="M18.6,10c0.3-2.5,0.6-3.4,0.8-3.7c0.6-1,2.2-0.2,3,0l4.1-4c-3.6-0.5-7.1-1.1-9.8,2c-1.2,1.4-2,3.3-2.3,5.7
	l-0.2,2H10l-4,4h7.7L13,23c-0.2,1.9-0.8,3.6-3,2.9l-0.8-0.3l-3.7,3.3l2.3,0.8c2.4,0.8,4.9-0.1,6.7-1.7c1-0.9,1.7-1.9,2.2-3
	c0.4-1.1,0.7-2.5,0.9-4.4L18,16h4l4-4h-7.6L18.6,10z"/>
</svg>
